/* XPM */
static char *magick[] = {
/* columns rows colors chars-per-pixel */
"64 41 106 2",
"   c #000829",
".  c #000831",
"X  c #080831",
"o  c #080839",
"O  c #393939",
"+  c #080842",
"@  c #08084a",
"#  c #08104a",
"$  c #081052",
"%  c #08105a",
"&  c #10105a",
"*  c #101063",
"=  c #10106b",
"-  c #10186b",
";  c #101873",
":  c #10187b",
">  c Gray26",
",  c Gray29",
"<  c Gray32",
"1  c #525a5a",
"2  c #5a5a5a",
"3  c #5a6363",
"4  c Gray39",
"5  c #63636b",
"6  c #636b6b",
"7  c Gray42",
"8  c #6b6b73",
"9  c #6b7373",
"0  c Gray45",
"q  c #73737b",
"w  c #737b7b",
"e  c #7b7b7b",
"r  c #181884",
"t  c #18218c",
"y  c #182194",
"u  c #18219c",
"i  c #1821a5",
"p  c #1821ad",
"a  c #2129ad",
"s  c #2129b5",
"d  c #2129bd",
"f  c #2129c6",
"g  c #2131c6",
"h  c #2131ce",
"j  c #2931ce",
"k  c #2931d6",
"l  c #2931de",
"z  c #2931e7",
"x  c #2939e7",
"c  c #2939ef",
"v  c #3131ef",
"b  c #3139f7",
"n  c #3139ff",
"m  c #3142ff",
"M  c #3942ff",
"N  c #394aff",
"B  c #7b7b84",
"V  c #424aff",
"C  c #4252ff",
"Z  c #425aff",
"A  c #4a5aff",
"S  c #4a63ff",
"D  c #7b8484",
"F  c #848484",
"G  c #848c8c",
"H  c Gray55",
"J  c #8c8c94",
"K  c #8c9494",
"L  c Gray58",
"P  c #94949c",
"I  c #949c9c",
"U  c Gray61",
"Y  c #9c9ca5",
"T  c #9ca5a5",
"R  c #a5a5a5",
"E  c #a5a5ad",
"W  c #a5adad",
"Q  c Gray68",
"!  c #adadb5",
"~  c #adb5b5",
"^  c Gray71",
"/  c #b5b5bd",
"(  c #b5bdbd",
")  c Gray74",
"_  c #bdbdc6",
"`  c #c6c6c6",
"'  c #c6cece",
"]  c #cecece",
"[  c #ceced6",
"{  c #ced6d6",
"}  c Gray84",
"|  c #d6d6de",
" . c #d6dede",
".. c Gray87",
"X. c #dedee7",
"o. c #dee7e7",
"O. c #e7e7e7",
"+. c #e7e7ef",
"@. c #e7efef",
"#. c #efefef",
"$. c #efeff7",
"%. c #eff7f7",
"&. c Gray97",
"*. c #f7f7ff",
"=. c #f7ffff",
"-. c Gray100",
/* pixels */
"@ # # # # # $ $ $ 0 0 0 e e % & & % & & & & & * & & * & & & % & & % $ $ $ $ # @ # + + o o o . X                                 ",
"# # @ $ # $ $ $ $ 0 e e e e & & & & * * * * * * * * * * * * & & & & & & $ $ $ # # # + + o o X X X X X X X X X X X X X X X X X   ",
"# # # # $ $ $ $ $ e w e e e & & * * & * * * * * * * * * * * * * * & * & & & $ $ $ # # + + + o . X                           X   ",
"@ # # $ $ $ $ $ $ e e e D F & * * * * * * * * - - - - - - - * - * * * * & & & & $ $ # # + + o o X   X   X   X   X   X   X   X   ",
"# # $ $ # $ $ & & e e F F F * * * * * - - - - - L L U L L L L L L K H H H F F F e 0 0 7 4 4 2 < , > > > O > > O > > O > > O > > ",
"# # # $ $ $ $ & & F e F F F * * * - - - - - - - U U U U U U U I L L L L H H G F F e 0 0 7 4 2 1 < , > O > O > > O > > O > > O > ",
"# $ $ $ $ $ & & $ B F F G H * * - - - - - ; ; ; T U T T T R U R T U U U I L H H F F e 0 9 7 4 2 < , > > > > O > > O > > O > > O ",
"$ # $ $ $ & & & & F F F H H - - - - - ; ; ; ; ; R R R R R R W R R R R U U U L L H H F e 0 7 4 4 2 < , > O O > > O > > O > > O > ",
"# $ $ $ $ $ & & & F F H H J * - - ; ; ; ; : : : : : : r : r : : : : : : : ; ; - - = * & & $ $ # + o . X   X     X     X     X   ",
"7 0 0 0 e e e F F F H H H L L U U R R R Q Q Q ^ : r r r r r r r r r r r : : : ; ; - - * * & $ # # + o X X   X   X X   X X   X   ",
"7 0 0 0 e e e F F G G H L L I U U T R R Q Q Q ^ r r r r t t t t t r t r r r r : : ; - - * * & $ # + + X X   X     X     X   X   ",
"7 0 0 0 e e D F F H H K L P U U R R Q Q ~ ^ ^ ) t t t t t t t y t y t t t r r r : : ; ; - * & & $ # + o X   X   X   X   X   X   ",
"7 0 0 e e e F F G H H L L U U R R W Q Q ^ / ) ) t t y y y u y y u y y y y y t t r r : : ; - * & $ # + o o   X   X   X   X   X   ",
"# $ $ $ & % & * * H L L I U ; : : : r r r t t y ] ] } } } ..............} } ] ] ` ` ) ^ Q U L H F 0 7 2 < > > O > > O > > O > > ",
"$ $ $ & & & & * * H K L U R ; : : r r r t t y y ] { }  .....o...o.o...o..... .} ] ` ) ^ Q R U L F e 7 4 < , O > > O > > O > > O ",
"$ $ $ $ % & * * * L L P U R : : r r r t t y y y } ....X.O.O.@.#.#.#.#.#.@.@.O... .} ] ` ) ~ R I H F 0 4 2 , O > O > > O O > O > ",
"# $ $ & & & & * * K L U Y R : : r r t t y y u u ..o.O.@.#.$.&.&.*.*.=.&.&.&.$.#.O.o.| { ` ) ! R L G e 7 3 < > O > O > O > O > O ",
"$ $ $ & & & * * * L I U R R : r r r t y y u u a O.+.#.%.&.=.-.-.-.-.-.-.-.-.-.=.&.#.O...{ ` ) Q R L F 0 4 < > > > O > > > O > > ",
"$ $ $ & & & * * * L L U T Q : r r t t y u u u i a p s s d d d f f g f h g f f d d s p a i u y r : ; * & # + X             X     ",
"# $ $ $ % & * * - L U U R Q r r t t y y u u a a a s s d f g h j j j k k k k j j g g d s a a u t r ; - & $ + o X X X   X   X     ",
"$ $ $ & & * * * - L I Y R Q : r t t y u u a a a s d d g g j j k l l l l l l l k k j j d s a a y t : ; * & # o       X   X   X X ",
"# $ $ & & & * * - L U U R Q r r t y y u a a a s d d g j j k l l l x x x x x x x l l k j g s a a y t : - & # + X X   X   X       ",
"7 0 0 e e F F H K L U R W Q ^ ) ` ] } ..O.#.&.-.-.-.-.-.-.-.-.-.-.-.-.-.-.-.-.-.-.-.-.-.-.-.-.#...` ^ U H 0 2 , O > > O > > > > ",
"7 7 0 0 e D F H H L U U W Q ^ ) ` ] } ..O.#.&.-.-.-.-.-.-.-.-.-.-.-.-.-.-.-.-.-.-.-.-.-.-.-.-.=.O.] ) R H 0 4 , > > O > > O > O ",
"7 7 0 0 e e F G H L U T R ! ^ ) ` ] } o.O.%.-.-.-.-.-.-.-.-.-.-.-.-.-.-.-.-.-.-.-.-.-.-.-.-.-.-.&...` Q L e 4 , O > O > O > > O ",
"5 7 0 0 e e F H H L I R R Q ( _ ` { } o.#.&.-.-.-.-.-.-.-.-.-.-.-.-.-.-.-.-.-.-.-.-.-.-.-.-.-.-.-.@.[ ^ I F 5 < O > > > > O > > ",
"4 7 7 0 0 e F F H L U U W Q ^ ) ' ] | o.#.*.-.-.-.-.-.-.-.-.-.-.-.-.-.-.-.-.-.-.-.-.-.-.-.-.-.-.-.&..._ R F 7 < > O > O > O > O ",
"# # # $ $ & % * * - = ; : : r t t u u i p s d g k l x c b n m M m M N N N N V N N N N M m m b z j d i t : * # o   X   X   X     ",
"+ # # $ $ & & & * - - ; ; : r t y y u a a d g j k l x v m m m M N N N V C V C C V V N N M M n c k g a u : - $ o   X     X   X X ",
"+ # # # $ $ & & * * - ; ; : r r y y u a a s d j k l v b m m M N N V N C C C C C C C C N N N m m x j s u r - $ o X   X   X       ",
"+ + # # $ $ & & & * - - ; : : t t y u a a d d j k l c b n M m N N N C C C Z C C Z C C C V N M m v k d a r - $ o   X   X   X X   ",
"2 4 4 7 7 0 0 e F H L L R Q ^ ) ` ] ..O.#.-.-.-.-.-.-.-.-.-.-.-.-.-.-.-.-.-.-.-.-.-.-.-.-.-.-.-.-.-.-.O.) U 0 < > > > O > > O > ",
"2 2 4 4 7 7 0 e e F H L U U Q ^ ) ' } ..@.=.-.-.-.-.-.-.-.-.-.-.-.-.-.-.-.-.-.-.-.-.-.-.-.-.-.-.-.-.-.O.) L 8 , O O > > O > > O ",
"< 2 2 4 4 7 7 0 e F F J L U E ~ ) ` ] ..O.&.-.-.-.-.-.-.-.-.-.-.-.-.-.-.-.-.-.-.-.-.-.-.-.-.-.-.-.-.-.O.( L 7 > > > O > O O > > ",
"< < 2 2 4 4 7 0 q e F H L U R Q ^ _ ' | O.%.-.-.-.-.-.-.-.-.-.-.-.-.-.-.-.-.-.-.-.-.-.-.-.-.-.-.-.-.-.o.) H 4 > > O > O > O > O ",
", < < 2 2 4 6 7 0 e D F H L U R ! ) ` { ..#.=.-.-.-.-.-.-.-.-.-.-.-.-.-.-.-.-.-.-.-.-.-.-.-.-.-.-.-.-...^ G 2 O O > > O > > O > ",
"X o o o + + + # # $ $ & * - - ; : r t y u i s d h k z c n m M N N C C Z A A A S S A A A Z C N M n l d u : $ o X       X     X   ",
". X o o o + + # # $ $ & & * - ; ; : r t u u a s f j l x b m M N N V C C A A A A A S A A C C N m b k s y ; # X   X X   X     X   ",
"X X . o o o + + @ # $ $ & & * - ; : r t y u a a d g k x v n m M N N C C C A A A A A A A C V N M c j a r * +   X     X   X   X   ",
"    X X o o o o + + # $ $ & * * - ; : : t y u a s d j k x b n m N N N C C A Z A A A Z C C N M m l d u : & o X X   X X   X   X   ",
"  X   X . X o o + + # # $ $ & & * - ; : r t y u a s d j k x b m M M N V C C C C C C C V N M m c j a t * +         X     X   X   "
};
