/* XPM */
static char *gb[] = {
/* width height num_colors chars_per_pixel */
"    60    40       44            1",
/* colors */
". c #ffffff",
"# c #ffefef",
"a c #ffe7de",
"b c #ffdede",
"c c #f7cece",
"d c #f7c6bd",
"e c #f7bdbd",
"f c #f7b5ad",
"g c #f7adad",
"h c #eff7ff",
"i c #efefff",
"j c #efada5",
"k c #ef9c9c",
"l c #ef948c",
"m c #ef8c8c",
"n c #ef8c7b",
"o c #e77b6b",
"p c #e76b5a",
"q c #e75a52",
"r c #e75a4a",
"s c #dee7f7",
"t c #de4a39",
"u c #de3929",
"v c #de2918",
"w c #de1808",
"x c #d6deef",
"y c #d60800",
"z c #cedeef",
"A c #c6ceef",
"B c #bdcee7",
"C c #adbdde",
"D c #9cb5de",
"E c #9cadde",
"F c #8cadd6",
"G c #849cce",
"H c #6b8cc6",
"I c #4a6bb5",
"J c #396bb5",
"K c #295aad",
"L c #214aa2",
"M c #184a92",
"N c #0842a5",
"O c #08399c",
"P c #00299c",
/* pixels */
"v.......OOOOOOOOOOOOOOOOO..vvvvvv..OOOOOOOOOOOOOOOOO..cvvvvg",
"vv.......zOOOOOOOOOOOOOOO..vvvvvv..OOOOOOOOOOOOOOOi..vvvvu..",
"vvvw.......OOOOOOOOOOOOOO..vvvvvv..OOOOOOOOOOOOOO..pvvvv....",
"yvvvv.......KOOOOOOOOOOOO..vvvvvv..OOOOOOOOOOOOE..wvvvv.....",
"..vvvvu.......OOOOOOOOOOO..vvvvvv..OOOOOOOOOOP..kvvvvd......",
"N..vvvvv.......EOOOOOOOOO..vvvvvv..OOOOOOOOOz..vvvvw.......N",
"OO...vvvvv.......OOOOOOOO..vvvvvv..OOOOOOOO..uvvvv.......DOO",
"OOOO..nvvvve.......OOOOOO..vvvvvv..OOOOOO...vvvvu.......OOOO",
"OOOOO..#vvvvq.......OOOOO..vvvvvv..OOOOO..jvvvvf.......OOOOO",
"OOOOOOO..rvvvv#......COOO..vvvvvv..OOOA..wvvvw.......POOOOOO",
"OOOOOOOOi..vvvvv.......PO..vvvvvv..OP..mvvvvd......xOOOOOOOO",
"OOOOOOOOOO..tvvvv.......h..vvvvvv.....vvvvw.......OOOOOOOOOO",
"OOOOOOOOOOOG..vvvvv........vvvvvv...vvvvv.......HOOOOOOOOOOO",
"...............ccccc.......vvvvvv..ccccc....................",
"...........................vvvvvv...........................",
"...........................vvvvvv...........................",
"vvvvvvvvvvvvvvvvvvvvvvvvvvvvvvvvvvvvvvvvvvvvvvvvvvvvvvvvvvvv",
"vvvvvvvvvvvvvvvvvvvvvvvvvvvvvvvvvvvvvvvvvvvvvvvvvvvvvvvvvvvv",
"vvvvvvvvvvvvvvvvvvvvvvvvvvvvvvvvvvvvvvvvvvvvvvvvvvvvvvvvvvvv",
"vvvvvvvvvvvvvvvvvvvvvvvvvvvvvvvvvvvvvvvvvvvvvvvvvvvvvvvvvvvv",
"vvvvvvvvvvvvvvvvvvvvvvvvvvvvvvvvvvvvvvvvvvvvvvvvvvvvvvvvvvvv",
"vvvvvvvvvvvvvvvvvvvvvvvvvvvvvvvvvvvvvvvvvvvvvvvvvvvvvvvvvvvv",
"vvvvvvvvvvvvvvvvvvvvvvvvvvvvvvvvvvvvvvvvvvvvvvvvvvvvvvvvvvvv",
"vvvvvvvvvvvvvvvvvvvvvvvvvvvvvvvvvvvvvvvvvvvvvvvvvvvvvvvvvvvv",
"...........................vvvvvv...........................",
"...........................vvvvvv...........................",
"....................ccccc..vvvvvv.......ccccc...............",
"OOOOOOOOOOO.......nvvvve...vvvvvv........pvvvvb..OOOOOOOOOOO",
"OOOOOOOOOO.......wvvvv..i..vvvvvv.........cvvvvl..POOOOOOOOO",
"OOOOOOOOi......cvvvvo..PO..vvvvvv..OP.......uvvvv..sOOOOOOOO",
"OOOOOOO.......wvvvv..COOO..vvvvvv..OOOB.......vvvvt..POOOOOO",
"OOOOO.......pvvvvc..OOOOO..vvvvvv..OOOOO.......vvvvv...OOOOO",
"OOOJ.......vvvvw..MOOOOOO..vvvvvv..OOOOOOI.......vvvvv..LOOO",
"OO........vvvvv..OOOOOOOO..vvvvvv..OOOOOOOO.......vvvvv..COO",
"N.......wvvvv..EOOOOOOOOO..vvvvvv..OOOOOOOOOA.......vvvvv..N",
"......evvvvo..OOOOOOOOOOO..vvvvvv..OOOOOOOOOOP.......tvvvv..",
".....vvvvw..KOOOOOOOOOOOO..vvvvvv..OOOOOOOOOOOOF.......vvvvw",
"...qvvvvb..OOOOOOOOOOOOOO..vvvvvv..OOOOOOOOOOOOOO.......lvvv",
"..vvvvv..zOOOOOOOOOOOOOOO..vvvvvv..OOOOOOOOOOOOOOOi......avv",
"gvvvve..OOOOOOOOOOOOOOOOO..vvvvvv..OOOOOOOOOOOOOOOOO.......u"
};
