/* XPM */
static char * greece[] = {
"32 44 5 1",
" 	c None",
".	c #DDDDDD",
"+	c #0656CC",
"@	c #FFFFFF",
"#	c #000000",
"................................",
"................................",
"................................",
"...++++@@++++++++++++++++++++...",
"...++++@@++++++++++++++++++++...",
"...++++@@++++@@@@@@@@@@@@@@@@...",
"...++++@@++++@@@@@@@@@@@@@@@@...",
"...@@@@@@@@@@++++++++++++++++...",
"...@@@@@@@@@@++++++++++++++++...",
"...++++@@++++@@@@@@@@@@@@@@@@...",
"...++++@@++++@@@@@@@@@@@@@@@@...",
"...++++@@++++++++++++++++++++...",
"...++++@@++++++++++++++++++++...",
"...@@@@@@@@@@@@@@@@@@@@@@@@@@...",
"...@@@@@@@@@@@@@@@@@@@@@@@@@@...",
"...++++++++++++++++++++++++++...",
"...++++++++++++++++++++++++++...",
"...@@@@@@@@@@@@@@@@@@@@@@@@@@...",
"...@@@@@@@@@@@@@@@@@@@@@@@@@@...",
"...++++++++++++++++++++++++++...",
"...++++++++++++++++++++++++++...",
"................................",
"................................",
"................................",
"................................",
"................................",
"................................",
".........######..#..............",
".........#.......#..............",
".........#.......#..............",
".........#.......#..............",
".........######..#..............",
".........#.......#..............",
".........#.......#..............",
".........#.......#..............",
".........######..######.........",
"................................",
"................................",
"................................",
"................................",
"................................",
"................................",
"................................",
"................................"};
