/* XPM */
static char *greece[] = {
/* width height num_colors chars_per_pixel */
"    60    40        2            1",
/* colors */
". c #f7f7f7",
"# c #0400c9",
/* pixels */
"#########.....##############################################",
"#########.....##############################################",
"#########.....##############################################",
"#########.....##############################################",
"#########.....##############################################",
"#########.....#########.....................................",
"#########.....#########.....................................",
"#########.....#########.....................................",
"#########.....#########.....................................",
".......................#####################################",
".......................#####################################",
".......................#####################################",
".......................#####################################",
".......................#####################################",
"#########.....#########.....................................",
"#########.....#########.....................................",
"#########.....#########.....................................",
"#########.....#########.....................................",
"#########.....##############################################",
"#########.....##############################################",
"#########.....##############################################",
"#########.....##############################################",
"#########.....##############################################",
"............................................................",
"............................................................",
"............................................................",
"............................................................",
"############################################################",
"############################################################",
"############################################################",
"############################################################",
"############################################################",
"............................................................",
"............................................................",
"............................................................",
"............................................................",
"############################################################",
"############################################################",
"############################################################",
"############################################################"
};
