/* XPM */
static char * gb[] = {
"32 44 179 2",
"  	c None",
". 	c #DDDDDD",
"+ 	c #E96D61",
"@ 	c #FCEEED",
"# 	c #FAFBFD",
"$ 	c #BFCBE5",
"% 	c #4067B3",
"& 	c #08399C",
"* 	c #5376BA",
"= 	c #D0939A",
"- 	c #E13A2A",
"; 	c #4669B5",
"> 	c #BBB0C7",
", 	c #E57068",
"' 	c #E24030",
") 	c #F3ADA7",
"! 	c #E2483C",
"~ 	c #E23F31",
"{ 	c #F6C4BF",
"] 	c #FEF9FA",
"^ 	c #E1E7F3",
"/ 	c #5A7BBD",
"( 	c #1342A0",
"_ 	c #1240A0",
": 	c #6B82BF",
"< 	c #D99B9F",
"[ 	c #E24637",
"} 	c #E76356",
"| 	c #FBE6E4",
"1 	c #FFFEFE",
"2 	c #8D9DC9",
"3 	c #EC857C",
"4 	c #E14233",
"5 	c #ED8C83",
"6 	c #FBE5E2",
"7 	c #F3F5FA",
"8 	c #A7B8DC",
"9 	c #335BAE",
"0 	c #365EAF",
"a 	c #A69AB9",
"b 	c #E0736D",
"c 	c #E44F41",
"d 	c #F09890",
"e 	c #FDF2F0",
"f 	c #F6F7FC",
"g 	c #8BA4D3",
"h 	c #0E3E9E",
"i 	c #4F70B6",
"j 	c #E1B9BC",
"k 	c #E65B4D",
"l 	c #E55245",
"m 	c #F6C4C1",
"n 	c #FCFCFE",
"o 	c #DCE3F1",
"p 	c #738EC7",
"q 	c #728CC5",
"r 	c #D2A5AE",
"s 	c #E04E42",
"t 	c #E65B4E",
"u 	c #F8D2CF",
"v 	c #FFFCFC",
"w 	c #E9EDF6",
"x 	c #4A6FB7",
"y 	c #0C3D9E",
"z 	c #093A9C",
"A 	c #204CA6",
"B 	c #A8A8CA",
"C 	c #E8867E",
"D 	c #E14030",
"E 	c #EE9189",
"F 	c #FCEDEB",
"G 	c #F2F4FA",
"H 	c #9CB0D8",
"I 	c #728DC7",
"J 	c #D2949B",
"K 	c #9D9DC5",
"L 	c #E17D7A",
"M 	c #E3483A",
"N 	c #EE8C83",
"O 	c #FCE9E7",
"P 	c #F9FAFC",
"Q 	c #A5B7DC",
"R 	c #1F4AA6",
"S 	c #09399C",
"T 	c #2D57AB",
"U 	c #355DAE",
"V 	c #798DC1",
"W 	c #E2ACAD",
"X 	c #E76357",
"Y 	c #EB7D73",
"Z 	c #F9D7D4",
"` 	c #FFFFFF",
" .	c #FEFEFF",
"..	c #F1AEA8",
"+.	c #F7CCC8",
"@.	c #E96E63",
"#.	c #E86C61",
"$.	c #F6C2BD",
"%.	c #FEF7F6",
"&.	c #EAEFF7",
"*.	c #7994CA",
"=.	c #FEF8F8",
"-.	c #FDF0F0",
";.	c #FEF5F5",
">.	c #F3AEA8",
",.	c #F2ACA6",
"'.	c #FDF4F4",
").	c #FEFAFA",
"!.	c #E55446",
"~.	c #E24435",
"{.	c #DF2C1C",
"].	c #DE2918",
"^.	c #355EAE",
"/.	c #819ACC",
"(.	c #F5BBB5",
"_.	c #E65D4F",
":.	c #EA7870",
"<.	c #F9DDDC",
"[.	c #F1ACA7",
"}.	c #FADEDC",
"|.	c #EA7C72",
"1.	c #E65E52",
"2.	c #F6C1BC",
"3.	c #7F91C6",
"4.	c #AABADE",
"5.	c #FBE8E6",
"6.	c #EE8D85",
"7.	c #E34A3C",
"8.	c #DF7D79",
"9.	c #9998BF",
"0.	c #9FB1D9",
"a.	c #EE958C",
"b.	c #E14132",
"c.	c #E6827B",
"d.	c #A4A6C9",
"e.	c #587CBD",
"f.	c #F8CFCB",
"g.	c #E44E40",
"h.	c #E14D41",
"i.	c #C59DAD",
"j.	c #5375B9",
"k.	c #5A7ABD",
"l.	c #D1DAED",
"m.	c #F6C6C2",
"n.	c #E55447",
"o.	c #E5584A",
"p.	c #DFACB0",
"q.	c #4F6EB5",
"r.	c #8EA6D4",
"s.	c #FDF1F0",
"t.	c #E44E3F",
"u.	c #DE6F69",
"v.	c #A194B6",
"w.	c #5375BA",
"x.	c #D0929A",
"y.	c #F4F6FB",
"z.	c #E14334",
"A.	c #E47F78",
"B.	c #8A9BC8",
"C.	c #FFFDFD",
"D.	c #F8CECB",
"E.	c #E76458",
"F.	c #E45447",
"G.	c #D5989E",
"H.	c #5873B4",
"I.	c #6988C3",
"J.	c #E4EAF4",
"K.	c #F6C5C0",
"L.	c #E45243",
"M.	c #E44C3E",
"N.	c #F3ABA6",
"O.	c #E13727",
"P.	c #E56E66",
"Q.	c #BBB4CB",
"R.	c #466AB6",
"S.	c #C0CCE6",
"T.	c #FDF0EE",
"U.	c #E96F63",
"V.	c #000000",
". . . . . . . . . . . . . . . . . . . . . . . . . . . . . . . . ",
". . . . . . . . . . . . . . . . . . . . . . . . . . . . . . . . ",
". . . . . . . . . . . . . . . . . . . . . . . . . . . . . . . . ",
". . . + @ # $ % & & & & & * = - - = * & & & & & ; > , ' ) . . . ",
". . . ! ~ { ] ^ / ( & & & * = - - = * & & & _ : < [ } | 1 . . . ",
". . . 2 3 4 5 6 7 8 9 & & * = - - = * & & 0 a b c d e f g . . . ",
". . . h i j k l m n o p & * = - - = * & q r s t u v w x y . . . ",
". . . & z A B C D E F G H I J - - J I K L M N O P Q R S & . . . ",
". . . T T T U V W X Y Z `  ...- - ) +.@.#.$.%.&.*.U T T T . . . ",
". . . ` ` ` ` ` 1 =.-.;.` ` >.- - ,.'.-.).` ` ` ` ` ` ` ` . . . ",
". . . !.!.!.!.!.!.!.!.!.!.!.~.{.{.~.!.!.!.!.!.!.!.!.!.!.!.. . . ",
". . . ].].].].].].].].].].].].].].].].].].].].].].].].].].. . . ",
". . . ].].].].].].].].].].].].].].].].].].].].].].].].].].. . . ",
". . . !.!.!.!.!.!.!.!.!.!.!.~.{.{.~.!.!.!.!.!.!.!.!.!.!.!.. . . ",
". . . ` ` ` ` ` ` ` ` ).-.'.,.- - >.` ` ;.-.=.1 ` ` ` ` ` . . . ",
". . . T T T ^./.` %.(._.:.<.[.- - >.` ` }.|.1.2.3.U T T T . . . ",
". . . & z A 4.P 5.6.7.8.9.I J - - J I 0.7 F a.b.c.d.R S & . . . ",
". . . h e.w v f.g.h.i.j.& * = - - = * & k.l.n m.n.o.p.q.y . . . ",
". . . r.` s.d t.u.v.9 & & w.x.- - x.w.& & 0 4.y.6 5 z.A.B.. . . ",
". . . C.D.E.F.G.H.( & & & * = - - = * & & & _ I.J.).K.L.M.. . . ",
". . . N.O.P.Q.% & & & & & w.x.- - x.w.& & & & & R.S.# T.U.. . . ",
". . . . . . . . . . . . . . . . . . . . . . . . . . . . . . . . ",
". . . . . . . . . . . . . . . . . . . . . . . . . . . . . . . . ",
". . . . . . . . . . . . . . . . . . . . . . . . . . . . . . . . ",
". . . . . . . . . . . . . . . . . . . . . . . . . . . . . . . . ",
". . . . . . . . . . . . . . . . . . . . . . . . . . . . . . . . ",
". . . . . . . . . . . . . . . . . . . . . . . . . . . . . . . . ",
". . . . . . . . . V.V.V.V.V.V.. . V.V.. . . . V.. . . . . . . . ",
". . . . . . . . . V.. . . . . . . V.V.. . . . V.. . . . . . . . ",
". . . . . . . . . V.. . . . . . . V.. V.. . . V.. . . . . . . . ",
". . . . . . . . . V.. . . . . . . V.. V.. . . V.. . . . . . . . ",
". . . . . . . . . V.V.V.V.V.V.. . V.. . V.. . V.. . . . . . . . ",
". . . . . . . . . V.. . . . . . . V.. . . V.. V.. . . . . . . . ",
". . . . . . . . . V.. . . . . . . V.. . . V.. V.. . . . . . . . ",
". . . . . . . . . V.. . . . . . . V.. . . . V.V.. . . . . . . . ",
". . . . . . . . . V.V.V.V.V.V.. . V.. . . . V.V.. . . . . . . . ",
". . . . . . . . . . . . . . . . . . . . . . . . . . . . . . . . ",
". . . . . . . . . . . . . . . . . . . . . . . . . . . . . . . . ",
". . . . . . . . . . . . . . . . . . . . . . . . . . . . . . . . ",
". . . . . . . . . . . . . . . . . . . . . . . . . . . . . . . . ",
". . . . . . . . . . . . . . . . . . . . . . . . . . . . . . . . ",
". . . . . . . . . . . . . . . . . . . . . . . . . . . . . . . . ",
". . . . . . . . . . . . . . . . . . . . . . . . . . . . . . . . ",
". . . . . . . . . . . . . . . . . . . . . . . . . . . . . . . . "};
