/* XPM */
static char *magick[] = {
/* columns rows colors chars-per-pixel */
"64 41 240 2",
"   c #000018",
".  c #000029",
"X  c #080821",
"o  c #000039",
"O  c #080831",
"+  c #101029",
"@  c #181839",
"#  c #182131",
"$  c #390000",
"%  c #391010",
"&  c #292931",
"*  c #000042",
"=  c #00004a",
"-  c #00005a",
";  c #08085a",
":  c #10104a",
">  c #101842",
",  c #080863",
"<  c #08086b",
"1  c #08087b",
"2  c #08106b",
"3  c #18214a",
"4  c #18216b",
"5  c #10217b",
"6  c #212152",
"7  c #21215a",
"8  c #292952",
"9  c #313142",
"0  c #393942",
"q  c #39394a",
"w  c #31315a",
"e  c #31396b",
"r  c #31317b",
"t  c #39424a",
"y  c #4a0000",
"u  c #421010",
"i  c #520000",
"p  c #5a0808",
"a  c #521818",
"s  c #422929",
"d  c #423939",
"f  c #522929",
"g  c #5a3939",
"h  c #630000",
"j  c #630808",
"k  c #631810",
"l  c #730000",
"z  c #7b0808",
"x  c #7b1818",
"c  c #733131",
"v  c Gray26",
"b  c #4a4242",
"n  c #424252",
"m  c #42425a",
"M  c #4a4a52",
"N  c #4a4a5a",
"B  c #524a4a",
"V  c #5a4242",
"C  c #5a4a4a",
"Z  c Gray32",
"A  c #5a5a5a",
"S  c #424a6b",
"D  c #424273",
"F  c #52526b",
"G  c #5a5a73",
"H  c #5a637b",
"J  c #634242",
"K  c #63424a",
"L  c #635a5a",
"P  c #6b5a5a",
"I  c Gray39",
"U  c #6b6363",
"Y  c Gray42",
"T  c #636373",
"R  c #636b7b",
"E  c #7b6363",
"W  c #7b7b73",
"Q  c #080884",
"!  c #08089c",
"~  c #10109c",
"^  c #1010ad",
"/  c #1010bd",
"(  c #2929a5",
")  c #0000c6",
"_  c #0808d6",
"`  c #1018ce",
"'  c #1818d6",
"]  c #0808e7",
"[  c #0808ef",
"{  c Blue",
"}  c #1818e7",
"|  c #1010ff",
" . c #1018ff",
".. c #2121ff",
"X. c #2129ff",
"o. c #2929ff",
"O. c #3939ef",
"+. c #3131ff",
"@. c #424a84",
"#. c #525294",
"$. c #526b84",
"%. c #636384",
"&. c #6b6b84",
"*. c #636b9c",
"=. c #737384",
"-. c #7b7394",
";. c #7b7ba5",
":. c #4a5ade",
">. c #525aff",
",. c #6b6bde",
"<. c #7373ef",
"1. c #7373ff",
"2. c #7b84a5",
"3. c #7b8cc6",
"4. c #840000",
"5. c #8c0808",
"6. c #940000",
"7. c #9c1010",
"8. c #8c2118",
"9. c #842929",
"0. c #843939",
"q. c #942929",
"w. c #942931",
"e. c #9c3131",
"r. c #a50000",
"t. c #a50808",
"y. c #b50000",
"u. c #bd0808",
"i. c #b51010",
"p. c #a53939",
"a. c #b53939",
"s. c #8c4239",
"d. c #945a52",
"f. c #9c5252",
"g. c #847b73",
"h. c #9c6363",
"j. c #9c7b7b",
"k. c #a55252",
"l. c #bd4a4a",
"z. c #b55252",
"x. c #a56b6b",
"c. c #ad6b6b",
"v. c #c60808",
"b. c #c61010",
"n. c #d60808",
"m. c #d61818",
"M. c #ce2121",
"N. c #c63131",
"B. c #d62921",
"V. c #e70808",
"C. c #f70808",
"Z. c #ff0808",
"A. c #ff0810",
"S. c #ff1010",
"D. c #ff1818",
"F. c #e72929",
"G. c #ef2929",
"H. c #ff2929",
"J. c #ff3131",
"K. c #ff4239",
"L. c #c64242",
"P. c #ce4a4a",
"I. c #de4a4a",
"U. c #ce635a",
"Y. c #c66b73",
"T. c #d66b6b",
"R. c #ef4a52",
"E. c #ff4242",
"W. c #ff5252",
"Q. c #ff5a5a",
"!. c #ff5a63",
"~. c #ff735a",
"^. c #ff6b6b",
"/. c #ff7b73",
"(. c #947394",
"). c #bd847b",
"_. c #ff847b",
"`. c #848484",
"'. c #848c8c",
"]. c Gray55",
"[. c #8c949c",
"{. c Gray58",
"}. c #9c9494",
"|. c Gray61",
" X c #8c9cbd",
".X c #9494bd",
"XX c #9c9cb5",
"oX c #94a59c",
"OX c #9cada5",
"+X c #9cadad",
"@X c #a58484",
"#X c #ad948c",
"$X c #a59494",
"%X c #bd9c9c",
"&X c #bd8ca5",
"*X c #adada5",
"=X c #adadbd",
"-X c #a5b5b5",
";X c #adb5b5",
":X c #b5bdbd",
">X c #bdb5b5",
",X c #9c9cce",
"<X c #848cff",
"1X c #949cff",
"2X c #adadce",
"3X c #b5b5c6",
"4X c #adadff",
"5X c #bdc6c6",
"6X c #bdc6ff",
"7X c #ce948c",
"8X c #d69c9c",
"9X c #ef9494",
"0X c #ff8c8c",
"qX c #ff9c9c",
"wX c #ffadad",
"eX c #dea5c6",
"rX c #ceb5ef",
"tX c #efbdc6",
"yX c #d6c6bd",
"uX c #c6c6c6",
"iX c #c6d6ce",
"pX c #c6d6de",
"aX c #decece",
"sX c Gray84",
"dX c #ceceef",
"fX c #ced6f7",
"gX c #ced6ff",
"hX c #ded6ef",
"jX c #d6deff",
"kX c #dee7de",
"lX c #deefe7",
"zX c #ffcec6",
"xX c #ffded6",
"cX c #e7e7e7",
"vX c #e7f7ff",
"bX c #eff7f7",
"nX c #f7e7e7",
"mX c #fff7ef",
"MX c #fff7f7",
"NX c Gray100",
/* pixels */
"y i a Z Z @ O . . . . . . . o . o . o o o o o o o o o F g.z l l l l l l 9.'.8 o o o o o o . o . . . . .               # v % $ $ ",
"u i i i g V A @ O . o o o . o o o o o o o o * o * * o G `.z 4.z 4.z 4.4.9.{.w o * * o * o o o o . . . . . .   .   X # s a $ $ $ ",
"A a i i i i g Y N O . . . o o o o o o O o * O * * * o G `.z 4.4.5.4.4.4.9.oXw * * * * * * O o o o o . . . .     + t s $ $ $ u a ",
"@ 9 a i i i i g W N q o o o . o o O o * * * * * * * o T ].5.4.5.4.5.5.4.9.oXe * = * * * * * * O o o o . . . O 9 s a $ $ $ u v t ",
"  O 9 K k i h i a K W N . o o O o * * O * * * * * * * T ].5.5.6.5.6.6.6.w.OXe * = = = = * * * * * O o o O m d a $ $ $ u s v # + ",
".   O O q K p h h j p U Y m o o o o * * * * * * = = * R }.5.6.5.6.5.t.6.e.;Xm = ; = : = = = = * * o * * A K p i y $ d d t #     ",
". . . . . n B k j h h j P Y m > o * O * * * = * = = * R }.5.5.6.t.t.6.6.e.;XD = = ; ; = ; : = = * 6 A E z h h i u b d & X       ",
". . . . . . O m V j h h l k Y '.w o * * * = * : = = = &.|.7.6.t.t.6.t.r.p.:XD = ; ; ; ; = ; * = $.}.x l l h h J I 0             ",
". . . . . . . . 3 J c h h l x K `.S 8 o * = = = = = = =.|.t.t.t.t.t.t.y.p.uX@.- ; ; = ; = = @.R x.8.4.4.4.0.P A 9 .   .   .   . ",
". . . . . . o . . > w J l l l l x ].'.w o * = = = ; = =.*Xt.t.r.t.u.u.r.a.iX@.- , , , - @.2.z.a.r.6.6.d.P {.T O . . .           ",
". . . . . . . . o . . 3 U 0.l l l x s.'.=.8 * ; = ; = -.*Xi.t.u.u.u.u.y.L.sX#.- , , - @.iXU.y.y.r.r.k.OX[.6 : * o . . . .   .   ",
". . . . . o . o . o o o > 6 g.c 4.4.l 7.d.[.'.6 = = = -.;Xi.r.u.u.u.v.y.L.lX#.- 2 r 5XY.b.v.y.y.l.>X*Xr : = * * o o . .         ",
". . . . . . . o . o o o o o w W 9.4.4.4.4.d.+X[.7 , = -.>Xi.u.u.u.u.v.y.L.bX@.5 pX8Xn.n.n.y.B.I.iX=Xr = - ; = = * o . . .   .   ",
". . . . . o . o . o . o o o * o S s.q.4.6.6.f.j.5X[.; -.>Xi.u.v.v.v.n.n.I.bX3.&X9XV.V.n.F.R.cX,X#.- < , ; ; ; = * * o . .       ",
".   . . . . . . . . . o . o o o o e F q.6.6.6.6.k.).2.[.uXb.v.v.n.n.n.n.I.bXwXV.V.V.V.G.kXvX*.- < < < - - = = = = o o . . .     ",
"9 9 9 q q q q n m m m N N N F F F F H ].h.x.x.c.k.@X5XuX:Xb.v.n.n.n.V.V.R.vXtXqXqXwXqXxXNXNX,X2X,X,X.X.X X2.;.-.&.R F N n 9 & & ",
"Z Z A A A I I Y Y Y W W W `.`.`.].{.{.oXoX+X+X:X3X:X:XuXuXb.n.n.b.A.V.V.W.NXNXNXNXNXNXNXNXNXNXNXNXNXNXbXcXkXsXuX;XOX{.`.Y A t v ",
"y p y p p p p j j j j j z x k 7.x 8.8.8.q.7.7.7.i.q.U.N.P.n.n.V.V.V.S.C.S.D.D.D.H.D.D.H.D.D.H.D.D.H.D.D.D.m.m.b.i.i.7.z z p y u ",
"y y i i i i h i h h h l l l l l 4.5.4.t.6.t.r.t.y.v.y.v.v.n.b.V.V.S.S.Z.S.S.S.S.Z.S.S.S.S.S.S.S.S.Z.S.Z.S.C.V.n.v.r.t.4.l h i $ ",
"y y i i i i i h h h h j l z 4.z 4.4.6.6.t.t.t.u.u.u.v.v.n.n.V.V.S.S.Z.S.S.S.S.S.S.S.S.S.S.S.S.S.S.S.S.S.S.S.S.V.n.v.t.t.4.l i $ ",
"y y i i i i h h h h h l l l z 4.4.5.5.5.t.t.t.t.u.u.v.n.n.V.S.S.C.S.S.S.S.S.S.S.S.D.S.S.D.D.S.D.S.S.S.S.S.S.A.S.V.v.u.t.5.l h y ",
"$ y y i i i i i h h h h l l l 4.z 4.6.t.6.t.t.u.u.v.v.n.b.V.V.S.S.S.S.S.S.S.S.D.S.D.D.S.D.S.D.S.D.D.S.D.S.S.S.S.S.V.v.u.t.l h i ",
"y y y y i i i i h h h j l l z l 5.5.5.6.t.t.u.t.u.v.b.n.V.V.S.C.S.S.S.S.S.S.S.S.D.S.D.D.D.D.D.D.D.D.D.S.D.S.S.S.S.S.n.u.t.5.l i ",
"b b b B C Z Z L L P U U Y W W g.j.`.].}.$X|.|.>X:XuXyXkXF.V.C.S.S.S.S.Z.W.mXMXNXMXmXmXmXmXmXmXmXmXmXmXmXmXMXmXMXmXmXnXaX>X$XW L ",
"9 d 9 0 v t b M M N Z A A G G T R R =.&.].;X3X$X%X8XuXlXF.C.S.A.S.S.S.Z.Q.NXnXzXxXNXvX6XjXgXgXgXgXgXgXgXgXfXfXdXdXdXpX3XXX-.T Z ",
"      .   . . . . . . o . . o o * o = w *.#Xc.u.y.y.T.vXF.C.Z.S.S.S.S.Z.!.NX!.Z.Z.zXgX} ] [ [ [ [ [ [ ] _ _ ) ) ) ! Q 1 - - = . ",
"    .   . . . . . o . o o o * o * m H ;X@X7.y.y.y.F.yXvXG.C.S.S.S.S.S.Z.Q.NX!.Z.S.D._.eX<Xo.| ........} ..} ' ` ^ ^ ! Q 1 , = o ",
"  .   . .   . . . . o . o o . w G [.].w.7.r.t.u.7X(. XbXF.C.Z.S.S.S.S.Z.!.NXxXH.Z.S.Z.K.~.rXX.| ........ ...} ' ` / ^ ~ 5 < ; * ",
"    .   . . . . . . . . o . w W ].8.7.4.6.t.i.%X.X2 ;.bXG.Z.S.S.S.S.S.Z.Q.NXNXnXzXD.D.D.Z.K.hX6X .............} ' ` ^ ~ Q < ; * ",
"      .     . . . . . O 3 Y Y c z l 4.6.7.x.[.4 2 - ;.NXF.Z.A.S.S.S.D.Z.Q.NX<.4XvXxXD.S.D.D.H.W.4Xo.X...........} ' / ~ ~ < ; * ",
"  .     .   .   . . O I I P f l l 4.4.h.oX4 = ; , - ;.bXG.C.S.S.S.S.S.Z.Q.NX<.] ..jXxXE.J.D.H.S.W.mX1X .| ........' ` ^ ~ 1 , * ",
"      .   .   . X @ A V f h h l l 0.0.R 7 = ; - , - ;.bXF.C.Z.S.S.D.S.Z.Q.NX<.[ | ..gXNXwXD.S.H.S.^.wX1X1.| ......} ' ^ ~ 1 , = ",
"  .         . & t g f i i h h h c S e o = ; ; ; , - ;.bXF.C.Z.S.S.S.D.Z.Q.NX<.[ ..| +.1.vXzX9XD.J.D.Z./.NX<X{  ...} ' / ~ Q , * ",
"    .   .   9 B d y y i i i x P w . o * = = ; ; ; - -.lXF.V.S.S.S.S.S.Z.Q.NX<.[ ......{ +.vXNXqXD.H.J.D.Q.0X6X1.| ..' ` ~ Q , * ",
".       & d d u $ $ y i p Z 9 > . o o * * = = = ; - *.lXF.V.Z.S.S.S.S.Z.^.NX<.[ ......o...+.>.NXxX0XD.H.D.H.K.wX>. .' ` ~ 5 , * ",
"  X # v v $ $ $ $ y y u B q . . . o O * * * = ; ; = -.kXB.V.C.S.S.S.S.Z.!.NX<.[  .......X.o...>.jXNX_.K.H.H.H.S.wXnXO./ ! Q ; o ",
"+ t v u $ $ $ $ $ u b 9   . . . o . o o * * = = ; = *.sXM.n.A.Z.S.S.S.Z.Q.NX<.[ ......X.o.o.o.o. .1.NXNX!.D.H.H.D.D.tX:.( < ; o ",
"v s u $ $ $ y $ a s &   .   . . . o . o O * * = ; = %.iXM.n.n.S.S.S.S.Z.Q.NX<._ } ......o.o.o.o.+. .1.NXNX^.Z.D.H.D.S.zXjX( o . ",
"a $ $ $ y $ $ s @ .       .   . . . o . o O * * = = %.5XM.v.n.V.S.S.S.Z.Q.NX<._ ..........X.o.o.o.+. .1.1XNXqXW.S.D.S.D./.@XD   ",
"$ $ y $ $ s & +         .     . . . . . o * O * * * H ;XM.y.n.n.S.Z.A.Z.Q.NX,._ } } ......o.o.o.o.o.+. .| <XNXmXE.S.D.Z.V.i.P 9 ",
"$ $ $ $ s + +       .       .     . . . . . o * * * F -X7.u.v.n.n.S.S.Z.W.NX,.) ' } .. .......X.o.o.o.o.o...+.4XmXJ.S.S.v.4.p % "
};
